<?xml version="1.0" encoding="UTF-8"?>
<svg xmlns="http://www.w3.org/2000/svg" xmlns:xlink="http://www.w3.org/1999/xlink" width="790.4pt" height="300.2pt" viewBox="0 0 790.4 300.2" version="1.1">
<defs>
<clipPath id="clip1">
  <path d="M 96 170 L 205 170 L 205 300.199219 L 96 300.199219 Z M 96 170 "/>
</clipPath>
<clipPath id="clip2">
  <path d="M 312 172 L 790.398438 172 L 790.398438 204 L 312 204 Z M 312 172 "/>
</clipPath>
</defs>
<g id="surface1">
<path style=" stroke:none;fill-rule:evenodd;fill:rgb(0%,56.443787%,20.776367%);fill-opacity:1;" d="M 96.125 -0.0585938 L 204.273438 -0.0585938 L 204.273438 129.714844 L 152.964844 50.074219 C 150.714844 52.378906 136.316406 74.894531 121.113281 82.601563 C 109.664063 88.40625 96.125 83.851563 96.125 66.886719 Z M 96.125 -0.0585938 "/>
<g clip-path="url(#clip1)" clip-rule="nonzero">
<path style=" stroke:none;fill-rule:evenodd;fill:rgb(0%,56.443787%,20.776367%);fill-opacity:1;" d="M 204.273438 300.132813 L 96.125 300.132813 L 96.125 170.359375 L 147.433594 249.996094 C 149.683594 247.691406 164.082031 225.179688 179.285156 217.472656 C 190.734375 211.664063 204.273438 216.21875 204.273438 233.183594 Z M 204.273438 300.132813 "/>
</g>
<path style=" stroke:none;fill-rule:evenodd;fill:rgb(0%,56.443787%,20.776367%);fill-opacity:1;" d="M 0.078125 203.898438 L 0.078125 95.746094 L 129.847656 95.746094 L 50.210938 147.054688 C 52.515625 149.304688 75.03125 163.710938 82.734375 178.90625 C 88.542969 190.359375 83.988281 203.898438 67.023438 203.898438 Z M 0.078125 203.898438 "/>
<path style=" stroke:none;fill-rule:evenodd;fill:rgb(0%,56.443787%,20.776367%);fill-opacity:1;" d="M 300.324219 95.746094 L 300.324219 203.898438 L 170.550781 203.898438 L 250.1875 152.589844 C 247.882813 150.339844 225.371094 135.9375 217.664063 120.738281 C 211.859375 109.285156 216.410156 95.746094 233.375 95.746094 Z M 300.324219 95.746094 "/>
<path style=" stroke:none;fill-rule:evenodd;fill:rgb(6.272888%,16.479492%,51.367188%);fill-opacity:1;" d="M 150.515625 111.3125 C 171.90625 111.3125 189.25 128.65625 189.25 150.046875 C 189.25 171.433594 171.90625 188.777344 150.515625 188.777344 C 129.128906 188.777344 111.78125 171.433594 111.78125 150.046875 C 111.78125 128.65625 129.128906 111.3125 150.515625 111.3125 Z M 150.515625 111.3125 "/>
<g clip-path="url(#clip2)" clip-rule="nonzero">
<path style=" stroke:none;fill-rule:evenodd;fill:rgb(6.272888%,16.479492%,51.367188%);fill-opacity:1;" d="M 312.953125 202.289063 C 313.476563 202.554688 314.152344 202.804688 314.964844 203.039063 C 315.78125 203.277344 316.675781 203.476563 317.667969 203.628906 C 318.660156 203.773438 319.6875 203.847656 320.738281 203.855469 C 322.621094 203.847656 324.257813 203.636719 325.644531 203.226563 C 327.035156 202.828125 328.183594 202.257813 329.085938 201.535156 C 329.996094 200.820313 330.675781 199.992188 331.117188 199.054688 C 331.566406 198.113281 331.78125 197.117188 331.78125 196.054688 C 331.78125 194.878906 331.53125 193.820313 331.023438 192.902344 C 330.511719 191.972656 329.730469 191.152344 328.683594 190.4375 C 327.640625 189.722656 326.308594 189.09375 324.691406 188.554688 C 323.503906 188.148438 322.53125 187.78125 321.777344 187.4375 C 321.023438 187.105469 320.472656 186.742188 320.121094 186.363281 C 319.765625 185.984375 319.589844 185.53125 319.597656 185.007813 C 319.597656 184.578125 319.742188 184.179688 320.03125 183.8125 C 320.324219 183.445313 320.773438 183.152344 321.363281 182.929688 C 321.953125 182.699219 322.695313 182.589844 323.59375 182.585938 C 324.476563 182.589844 325.28125 182.65625 326.015625 182.78125 C 326.742188 182.910156 327.382813 183.066406 327.9375 183.246094 C 328.488281 183.433594 328.945313 183.609375 329.296875 183.777344 L 330.683594 179.222656 C 329.875 178.863281 328.898438 178.558594 327.742188 178.320313 C 326.59375 178.089844 325.234375 177.964844 323.671875 177.953125 C 322.054688 177.964844 320.609375 178.152344 319.332031 178.527344 C 318.054688 178.90625 316.960938 179.433594 316.066406 180.113281 C 315.164063 180.789063 314.476563 181.59375 314 182.503906 C 313.527344 183.414063 313.289063 184.410156 313.28125 185.492188 C 313.289063 186.710938 313.605469 187.78125 314.230469 188.722656 C 314.855469 189.660156 315.734375 190.476563 316.867188 191.171875 C 318 191.867188 319.332031 192.464844 320.863281 192.960938 C 321.953125 193.300781 322.84375 193.640625 323.523438 193.984375 C 324.203125 194.324219 324.699219 194.691406 325.003906 195.089844 C 325.316406 195.488281 325.472656 195.949219 325.464844 196.464844 C 325.464844 197.019531 325.304688 197.496094 324.96875 197.902344 C 324.636719 198.308594 324.148438 198.628906 323.503906 198.847656 C 322.859375 199.070313 322.054688 199.191406 321.105469 199.191406 C 320.214844 199.183594 319.351563 199.109375 318.503906 198.964844 C 317.660156 198.8125 316.875 198.613281 316.140625 198.378906 C 315.40625 198.140625 314.769531 197.890625 314.21875 197.621094 Z M 336.0625 203.480469 L 342.257813 203.480469 L 342.257813 178.328125 L 336.0625 178.328125 Z M 346.578125 202.289063 C 347.101563 202.554688 347.773438 202.804688 348.585938 203.039063 C 349.402344 203.277344 350.296875 203.476563 351.289063 203.628906 C 352.28125 203.773438 353.308594 203.847656 354.359375 203.855469 C 356.242188 203.847656 357.878906 203.636719 359.265625 203.226563 C 360.65625 202.828125 361.804688 202.257813 362.707031 201.535156 C 363.617188 200.820313 364.296875 199.992188 364.738281 199.054688 C 365.1875 198.113281 365.402344 197.117188 365.402344 196.054688 C 365.402344 194.878906 365.152344 193.820313 364.644531 192.902344 C 364.132813 191.972656 363.355469 191.152344 362.308594 190.4375 C 361.261719 189.722656 359.929688 189.09375 358.3125 188.554688 C 357.125 188.148438 356.152344 187.78125 355.398438 187.4375 C 354.644531 187.105469 354.09375 186.742188 353.742188 186.363281 C 353.386719 185.984375 353.210938 185.53125 353.21875 185.007813 C 353.21875 184.578125 353.363281 184.179688 353.652344 183.8125 C 353.945313 183.445313 354.394531 183.152344 354.984375 182.929688 C 355.578125 182.699219 356.316406 182.589844 357.210938 182.585938 C 358.09375 182.589844 358.902344 182.65625 359.636719 182.78125 C 360.363281 182.910156 361.003906 183.066406 361.558594 183.246094 C 362.109375 183.433594 362.566406 183.609375 362.917969 183.777344 L 364.304688 179.222656 C 363.496094 178.863281 362.515625 178.558594 361.363281 178.320313 C 360.214844 178.089844 358.855469 177.964844 357.292969 177.953125 C 355.675781 177.964844 354.230469 178.152344 352.953125 178.527344 C 351.679688 178.90625 350.582031 179.433594 349.6875 180.113281 C 348.785156 180.789063 348.097656 181.59375 347.621094 182.503906 C 347.148438 183.414063 346.910156 184.410156 346.902344 185.492188 C 346.910156 186.710938 347.226563 187.78125 347.851563 188.722656 C 348.476563 189.660156 349.355469 190.476563 350.488281 191.171875 C 351.625 191.867188 352.953125 192.464844 354.484375 192.960938 C 355.578125 193.300781 356.464844 193.640625 357.144531 193.984375 C 357.824219 194.324219 358.320313 194.691406 358.625 195.089844 C 358.9375 195.488281 359.09375 195.949219 359.085938 196.464844 C 359.085938 197.019531 358.925781 197.496094 358.59375 197.902344 C 358.257813 198.308594 357.769531 198.628906 357.125 198.847656 C 356.480469 199.070313 355.675781 199.191406 354.726563 199.191406 C 353.835938 199.183594 352.972656 199.109375 352.125 198.964844 C 351.285156 198.8125 350.496094 198.613281 349.761719 198.378906 C 349.027344 198.140625 348.390625 197.890625 347.839844 197.621094 Z M 374.980469 203.480469 L 381.175781 203.480469 L 381.175781 183.105469 L 388.675781 183.105469 L 388.675781 178.328125 L 367.566406 178.328125 L 367.566406 183.105469 L 374.980469 183.105469 Z M 408.316406 188.21875 L 398.210938 188.21875 L 398.210938 182.992188 L 408.929688 182.992188 L 408.929688 178.328125 L 392.015625 178.328125 L 392.015625 203.480469 L 409.5 203.480469 L 409.5 198.816406 L 398.210938 198.816406 L 398.210938 192.84375 L 408.316406 192.84375 Z M 437.414063 203.480469 L 443.445313 203.480469 L 441.980469 178.328125 L 433.828125 178.328125 L 430.933594 186.6875 C 430.621094 187.628906 430.308594 188.601563 430.003906 189.628906 C 429.699219 190.644531 429.40625 191.671875 429.121094 192.703125 C 428.835938 193.734375 428.570313 194.742188 428.328125 195.71875 L 428.164063 195.71875 C 427.855469 194.238281 427.503906 192.734375 427.109375 191.210938 C 426.71875 189.679688 426.289063 188.1875 425.839844 186.722656 L 423.152344 178.328125 L 414.878906 178.328125 L 413.125 203.480469 L 418.871094 203.480469 L 419.402344 193.925781 C 419.457031 192.878906 419.511719 191.761719 419.5625 190.589844 C 419.617188 189.421875 419.667969 188.230469 419.714844 187.03125 C 419.761719 185.824219 419.808594 184.652344 419.851563 183.515625 L 419.929688 183.515625 C 420.160156 184.617188 420.414063 185.730469 420.6875 186.867188 C 420.957031 188.003906 421.234375 189.113281 421.527344 190.214844 C 421.820313 191.316406 422.117188 192.367188 422.417969 193.367188 L 425.351563 203.070313 L 430.199219 203.070313 L 433.542969 193.253906 C 433.894531 192.265625 434.257813 191.226563 434.617188 190.132813 C 434.976563 189.039063 435.328125 187.929688 435.675781 186.8125 C 436.015625 185.691406 436.339844 184.589844 436.640625 183.515625 L 436.722656 183.515625 C 436.722656 184.734375 436.734375 185.945313 436.753906 187.148438 C 436.78125 188.347656 436.808594 189.511719 436.851563 190.644531 C 436.882813 191.769531 436.925781 192.839844 436.964844 193.851563 Z M 462.355469 197.023438 L 464.476563 203.480469 L 471.199219 203.480469 L 462.640625 178.328125 L 454.488281 178.328125 L 446.136719 203.480469 L 452.535156 203.480469 L 454.488281 197.023438 Z M 455.386719 192.769531 L 457.015625 187.433594 C 457.167969 186.941406 457.308594 186.421875 457.453125 185.859375 C 457.59375 185.300781 457.738281 184.738281 457.871094 184.179688 C 458.007813 183.613281 458.144531 183.089844 458.28125 182.585938 L 458.363281 182.585938 C 458.496094 183.089844 458.640625 183.613281 458.796875 184.171875 C 458.945313 184.726563 459.101563 185.289063 459.265625 185.839844 C 459.421875 186.402344 459.585938 186.929688 459.746094 187.433594 L 461.457031 192.769531 Z M 483.058594 178.328125 L 483.058594 192.359375 C 483.066406 195.015625 483.5 197.199219 484.363281 198.898438 C 485.222656 200.601563 486.46875 201.863281 488.097656 202.679688 C 489.726563 203.492188 491.703125 203.898438 494.019531 203.890625 C 496.417969 203.890625 498.46875 203.480469 500.179688 202.648438 C 501.886719 201.816406 503.191406 200.550781 504.101563 198.855469 C 505.003906 197.160156 505.464844 195.023438 505.472656 192.433594 L 505.472656 178.328125 L 499.277344 178.328125 L 499.277344 192.769531 C 499.269531 195.003906 498.835938 196.660156 497.972656 197.734375 C 497.109375 198.8125 495.859375 199.34375 494.222656 199.339844 C 492.640625 199.339844 491.425781 198.796875 490.5625 197.691406 C 489.699219 196.597656 489.265625 194.953125 489.253906 192.769531 L 489.253906 178.328125 Z M 494.550781 172.394531 L 491.128906 176.984375 L 496.097656 176.984375 L 501.070313 172.394531 Z M 516.554688 203.480469 L 516.554688 195.90625 C 516.554688 193.859375 516.535156 191.929688 516.488281 190.121094 C 516.449219 188.3125 516.371094 186.570313 516.273438 184.894531 L 516.433594 184.894531 C 516.875 185.882813 517.359375 186.886719 517.886719 187.914063 C 518.417969 188.933594 518.96875 189.941406 519.53125 190.933594 C 520.09375 191.929688 520.652344 192.878906 521.203125 193.777344 L 527.070313 203.480469 L 533.589844 203.480469 L 533.589844 178.328125 L 527.886719 178.328125 L 527.886719 185.640625 C 527.886719 187.539063 527.917969 189.355469 527.992188 191.089844 C 528.070313 192.820313 528.199219 194.511719 528.375 196.171875 L 528.292969 196.171875 C 527.871094 195.214844 527.417969 194.246094 526.933594 193.261719 C 526.445313 192.273438 525.945313 191.296875 525.421875 190.328125 C 524.890625 189.363281 524.355469 188.433594 523.808594 187.546875 L 518.105469 178.328125 L 510.851563 178.328125 L 510.851563 203.480469 Z M 539.011719 203.480469 L 545.207031 203.480469 L 545.207031 178.328125 L 539.011719 178.328125 Z M 569.820313 198.335938 C 569.390625 198.492188 568.894531 198.636719 568.332031 198.761719 C 567.769531 198.886719 567.164063 198.976563 566.527344 199.046875 C 565.886719 199.117188 565.25 199.152344 564.601563 199.152344 C 562.761719 199.144531 561.195313 198.8125 559.890625 198.144531 C 558.578125 197.480469 557.582031 196.535156 556.886719 195.308594 C 556.195313 194.085938 555.847656 192.628906 555.84375 190.941406 C 555.847656 189.546875 556.074219 188.324219 556.515625 187.277344 C 556.960938 186.238281 557.574219 185.367188 558.367188 184.679688 C 559.164063 183.988281 560.082031 183.472656 561.140625 183.128906 C 562.191406 182.789063 563.332031 182.617188 564.5625 182.617188 C 565.683594 182.628906 566.683594 182.71875 567.550781 182.90625 C 568.425781 183.089844 569.167969 183.296875 569.78125 183.550781 L 571.082031 179.074219 C 570.710938 178.878906 570.199219 178.699219 569.554688 178.53125 C 568.910156 178.363281 568.144531 178.226563 567.261719 178.121094 C 566.375 178.011719 565.390625 177.953125 564.320313 177.953125 C 562.648438 177.953125 561.066406 178.140625 559.5625 178.515625 C 558.070313 178.886719 556.699219 179.441406 555.449219 180.171875 C 554.199219 180.902344 553.117188 181.804688 552.207031 182.878906 C 551.292969 183.949219 550.582031 185.195313 550.082031 186.59375 C 549.578125 188.003906 549.328125 189.5625 549.320313 191.277344 C 549.320313 193.085938 549.625 194.742188 550.230469 196.273438 C 550.84375 197.804688 551.746094 199.132813 552.957031 200.273438 C 554.15625 201.410156 555.660156 202.292969 557.449219 202.929688 C 559.242188 203.5625 561.328125 203.878906 563.707031 203.890625 C 564.8125 203.886719 565.824219 203.835938 566.75 203.71875 C 567.667969 203.605469 568.46875 203.46875 569.140625 203.308594 C 569.820313 203.140625 570.34375 202.976563 570.714844 202.808594 Z M 585.714844 177.878906 C 583.6875 177.886719 581.863281 178.222656 580.21875 178.878906 C 578.582031 179.535156 577.175781 180.453125 576.007813 181.636719 C 574.832031 182.824219 573.929688 184.21875 573.296875 185.816406 C 572.671875 187.414063 572.351563 189.15625 572.347656 191.054688 C 572.347656 192.496094 572.535156 193.867188 572.910156 195.152344 C 573.285156 196.441406 573.835938 197.621094 574.5625 198.6875 C 575.28125 199.753906 576.164063 200.671875 577.214844 201.453125 C 578.261719 202.226563 579.457031 202.828125 580.808594 203.246094 C 582.15625 203.675781 583.640625 203.886719 585.265625 203.890625 C 587.289063 203.886719 589.128906 203.589844 590.78125 202.984375 C 592.429688 202.386719 593.851563 201.515625 595.039063 200.371094 C 596.226563 199.234375 597.136719 197.847656 597.785156 196.214844 C 598.421875 194.574219 598.75 192.71875 598.753906 190.644531 C 598.753906 189.242188 598.570313 187.90625 598.210938 186.636719 C 597.84375 185.367188 597.308594 184.199219 596.59375 183.136719 C 595.882813 182.070313 595 181.144531 593.945313 180.359375 C 592.898438 179.578125 591.683594 178.96875 590.3125 178.539063 C 588.933594 178.101563 587.40625 177.886719 585.714844 177.878906 Z M 585.589844 182.394531 C 586.664063 182.402344 587.609375 182.628906 588.429688 183.074219 C 589.253906 183.515625 589.9375 184.128906 590.496094 184.902344 C 591.058594 185.679688 591.480469 186.574219 591.765625 187.589844 C 592.050781 188.601563 592.195313 189.683594 592.195313 190.828125 C 592.195313 192.054688 592.042969 193.191406 591.75 194.226563 C 591.460938 195.265625 591.03125 196.171875 590.46875 196.9375 C 589.90625 197.703125 589.210938 198.300781 588.394531 198.730469 C 587.574219 199.152344 586.644531 199.371094 585.589844 199.378906 C 584.550781 199.371094 583.613281 199.164063 582.792969 198.753906 C 581.972656 198.351563 581.273438 197.769531 580.6875 197.019531 C 580.109375 196.273438 579.667969 195.382813 579.371094 194.355469 C 579.0625 193.324219 578.90625 192.1875 578.90625 190.941406 C 578.90625 189.714844 579.058594 188.578125 579.355469 187.546875 C 579.65625 186.507813 580.089844 185.605469 580.660156 184.835938 C 581.230469 184.0625 581.929688 183.464844 582.757813 183.046875 C 583.585938 182.617188 584.53125 182.402344 585.589844 182.394531 Z M 611.0625 203.371094 C 611.816406 203.46875 612.773438 203.550781 613.949219 203.628906 C 615.117188 203.703125 616.503906 203.738281 618.113281 203.742188 C 619.914063 203.742188 621.589844 203.628906 623.160156 203.390625 C 624.722656 203.152344 626.152344 202.796875 627.4375 202.320313 C 628.730469 201.835938 629.863281 201.230469 630.828125 200.496094 C 631.703125 199.8125 632.484375 198.984375 633.15625 198.015625 C 633.835938 197.039063 634.375 195.910156 634.761719 194.628906 C 635.148438 193.355469 635.34375 191.910156 635.351563 190.308594 C 635.34375 188.828125 635.152344 187.496094 634.78125 186.308594 C 634.40625 185.121094 633.871094 184.070313 633.175781 183.160156 C 632.484375 182.253906 631.660156 181.472656 630.703125 180.828125 C 629.84375 180.230469 628.871094 179.734375 627.789063 179.339844 C 626.703125 178.9375 625.472656 178.636719 624.101563 178.4375 C 622.722656 178.242188 621.160156 178.140625 619.417969 178.140625 C 618.375 178.140625 617.371094 178.164063 616.378906 178.210938 C 615.394531 178.257813 614.449219 178.320313 613.554688 178.40625 C 612.65625 178.488281 611.828125 178.589844 611.0625 178.699219 Z M 617.257813 182.730469 C 617.519531 182.671875 617.886719 182.617188 618.355469 182.574219 C 618.824219 182.53125 619.394531 182.507813 620.070313 182.507813 C 621.867188 182.507813 623.425781 182.8125 624.722656 183.414063 C 626.019531 184.019531 627.023438 184.914063 627.722656 186.101563 C 628.429688 187.285156 628.78125 188.753906 628.789063 190.492188 C 628.78125 192.496094 628.390625 194.152344 627.621094 195.460938 C 626.847656 196.761719 625.765625 197.734375 624.367188 198.367188 C 622.960938 199.003906 621.316406 199.3125 619.417969 199.300781 C 619.035156 199.300781 618.65625 199.300781 618.261719 199.289063 C 617.867188 199.277344 617.535156 199.246094 617.257813 199.191406 Z M 655.769531 188.21875 L 645.660156 188.21875 L 645.660156 182.992188 L 656.378906 182.992188 L 656.378906 178.328125 L 639.464844 178.328125 L 639.464844 203.480469 L 656.949219 203.480469 L 656.949219 198.816406 L 645.660156 198.816406 L 645.660156 192.84375 L 655.769531 192.84375 Z M 668.359375 202.289063 C 668.882813 202.554688 669.554688 202.804688 670.371094 203.039063 C 671.183594 203.277344 672.082031 203.476563 673.074219 203.628906 C 674.066406 203.773438 675.089844 203.847656 676.144531 203.855469 C 678.023438 203.847656 679.660156 203.636719 681.046875 203.226563 C 682.441406 202.828125 683.585938 202.257813 684.492188 201.535156 C 685.402344 200.820313 686.082031 199.992188 686.523438 199.054688 C 686.96875 198.113281 687.1875 197.117188 687.1875 196.054688 C 687.1875 194.878906 686.9375 193.820313 686.425781 192.902344 C 685.917969 191.972656 685.136719 191.152344 684.089844 190.4375 C 683.042969 189.722656 681.714844 189.09375 680.097656 188.554688 C 678.910156 188.148438 677.9375 187.78125 677.183594 187.4375 C 676.429688 187.105469 675.878906 186.742188 675.527344 186.363281 C 675.171875 185.984375 674.996094 185.53125 675.003906 185.007813 C 675.003906 184.578125 675.144531 184.179688 675.4375 183.8125 C 675.730469 183.445313 676.175781 183.152344 676.769531 182.929688 C 677.359375 182.699219 678.097656 182.589844 678.996094 182.585938 C 679.878906 182.589844 680.6875 182.65625 681.421875 182.78125 C 682.148438 182.910156 682.785156 183.066406 683.34375 183.246094 C 683.894531 183.433594 684.347656 183.609375 684.703125 183.777344 L 686.085938 179.222656 C 685.277344 178.863281 684.300781 178.558594 683.148438 178.320313 C 681.996094 178.089844 680.640625 177.964844 679.078125 177.953125 C 677.460938 177.964844 676.015625 178.152344 674.738281 178.527344 C 673.460938 178.90625 672.367188 179.433594 671.472656 180.113281 C 670.566406 180.789063 669.882813 181.59375 669.40625 182.503906 C 668.929688 183.414063 668.691406 184.410156 668.6875 185.492188 C 668.691406 186.710938 669.011719 187.78125 669.636719 188.722656 C 670.261719 189.660156 671.136719 190.476563 672.273438 191.171875 C 673.40625 191.867188 674.738281 192.464844 676.265625 192.960938 C 677.359375 193.300781 678.25 193.640625 678.929688 193.984375 C 679.609375 194.324219 680.101563 194.691406 680.410156 195.089844 C 680.722656 195.488281 680.878906 195.949219 680.871094 196.464844 C 680.871094 197.019531 680.707031 197.496094 680.375 197.902344 C 680.042969 198.308594 679.554688 198.628906 678.910156 198.847656 C 678.261719 199.070313 677.460938 199.191406 676.511719 199.191406 C 675.621094 199.183594 674.757813 199.109375 673.910156 198.964844 C 673.066406 198.8125 672.277344 198.613281 671.546875 198.378906 C 670.8125 198.140625 670.171875 197.890625 669.621094 197.621094 Z M 705.691406 197.023438 L 707.808594 203.480469 L 714.535156 203.480469 L 705.972656 178.328125 L 697.824219 178.328125 L 689.472656 203.480469 L 695.867188 203.480469 L 697.824219 197.023438 Z M 698.71875 192.769531 L 700.351563 187.433594 C 700.5 186.941406 700.644531 186.421875 700.785156 185.859375 C 700.929688 185.300781 701.070313 184.738281 701.207031 184.179688 C 701.34375 183.613281 701.480469 183.089844 701.613281 182.585938 L 701.695313 182.585938 C 701.832031 183.089844 701.976563 183.613281 702.128906 184.171875 C 702.28125 184.726563 702.4375 185.289063 702.597656 185.839844 C 702.757813 186.402344 702.917969 186.929688 703.082031 187.433594 L 704.792969 192.769531 Z M 716.734375 178.328125 L 716.734375 192.359375 C 716.742188 195.015625 717.175781 197.199219 718.039063 198.898438 C 718.898438 200.601563 720.144531 201.863281 721.773438 202.679688 C 723.402344 203.492188 725.378906 203.898438 727.695313 203.890625 C 730.09375 203.890625 732.144531 203.480469 733.855469 202.648438 C 735.5625 201.816406 736.867188 200.550781 737.773438 198.855469 C 738.679688 197.160156 739.140625 195.023438 739.148438 192.433594 L 739.148438 178.328125 L 732.953125 178.328125 L 732.953125 192.769531 C 732.945313 195.003906 732.511719 196.660156 731.648438 197.734375 C 730.785156 198.8125 729.535156 199.34375 727.898438 199.339844 C 726.316406 199.339844 725.101563 198.796875 724.238281 197.691406 C 723.375 196.597656 722.941406 194.953125 722.925781 192.769531 L 722.925781 178.328125 Z M 728.226563 172.394531 L 724.804688 176.984375 L 729.773438 176.984375 L 734.746094 172.394531 Z M 744.527344 203.371094 C 745.28125 203.46875 746.238281 203.550781 747.414063 203.628906 C 748.582031 203.703125 749.96875 203.738281 751.578125 203.742188 C 753.378906 203.742188 755.054688 203.628906 756.625 203.390625 C 758.1875 203.152344 759.621094 202.796875 760.902344 202.320313 C 762.191406 201.835938 763.328125 201.230469 764.292969 200.496094 C 765.167969 199.8125 765.949219 198.984375 766.621094 198.015625 C 767.300781 197.039063 767.835938 195.910156 768.226563 194.628906 C 768.613281 193.355469 768.808594 191.910156 768.816406 190.308594 C 768.808594 188.828125 768.617188 187.496094 768.246094 186.308594 C 767.871094 185.121094 767.335938 184.070313 766.640625 183.160156 C 765.949219 182.253906 765.125 181.472656 764.167969 180.828125 C 763.308594 180.230469 762.335938 179.734375 761.253906 179.339844 C 760.167969 178.9375 758.9375 178.636719 757.566406 178.4375 C 756.1875 178.242188 754.625 178.140625 752.882813 178.140625 C 751.84375 178.140625 750.835938 178.164063 749.84375 178.210938 C 748.859375 178.257813 747.914063 178.320313 747.019531 178.40625 C 746.121094 178.488281 745.292969 178.589844 744.527344 178.699219 Z M 750.71875 182.730469 C 750.984375 182.671875 751.351563 182.617188 751.820313 182.574219 C 752.289063 182.53125 752.859375 182.507813 753.53125 182.507813 C 755.332031 182.507813 756.886719 182.8125 758.1875 183.414063 C 759.480469 184.019531 760.488281 184.914063 761.1875 186.101563 C 761.894531 187.285156 762.246094 188.753906 762.253906 190.492188 C 762.246094 192.496094 761.855469 194.152344 761.085938 195.460938 C 760.3125 196.761719 759.230469 197.734375 757.832031 198.367188 C 756.425781 199.003906 754.78125 199.3125 752.882813 199.300781 C 752.5 199.300781 752.121094 199.300781 751.726563 199.289063 C 751.332031 199.277344 751 199.246094 750.71875 199.191406 Z M 789.230469 188.21875 L 779.125 188.21875 L 779.125 182.992188 L 789.84375 182.992188 L 789.84375 178.328125 L 772.929688 178.328125 L 772.929688 203.480469 L 790.414063 203.480469 L 790.414063 198.816406 L 779.125 198.816406 L 779.125 192.84375 L 789.230469 192.84375 Z M 789.230469 188.21875 "/>
</g>
<path style=" stroke:none;fill-rule:evenodd;fill:rgb(0%,56.443787%,20.776367%);fill-opacity:1;" d="M 311.292969 167.46875 C 313.378906 168.253906 316.058594 168.988281 319.3125 169.683594 C 322.5625 170.382813 326.136719 170.96875 330.089844 171.410156 C 334.046875 171.847656 338.136719 172.070313 342.335938 172.089844 C 349.835938 172.070313 356.363281 171.445313 361.890625 170.234375 C 367.441406 169.046875 372.023438 167.378906 375.625 165.253906 C 379.253906 163.140625 381.960938 160.703125 383.722656 157.933594 C 385.511719 155.164063 386.378906 152.230469 386.378906 149.097656 C 386.378906 145.632813 385.375 142.515625 383.34375 139.800781 C 381.3125 137.070313 378.199219 134.652344 374.027344 132.546875 C 369.855469 130.433594 364.546875 128.585938 358.097656 126.988281 C 353.359375 125.796875 349.484375 124.714844 346.480469 123.710938 C 343.472656 122.714844 341.277344 121.652344 339.871094 120.535156 C 338.460938 119.414063 337.757813 118.078125 337.785156 116.539063 C 337.785156 115.269531 338.351563 114.097656 339.519531 113.015625 C 340.679688 111.933594 342.46875 111.074219 344.828125 110.414063 C 347.183594 109.734375 350.132813 109.40625 353.710938 109.386719 C 357.230469 109.40625 360.457031 109.605469 363.382813 109.972656 C 366.277344 110.359375 368.824219 110.816406 371.046875 111.347656 C 373.242188 111.898438 375.054688 112.410156 376.464844 112.90625 L 381.988281 99.488281 C 378.765625 98.421875 374.867188 97.523438 370.261719 96.828125 C 365.683594 96.132813 360.265625 95.765625 354.035156 95.746094 C 347.589844 95.765625 341.820313 96.335938 336.726563 97.433594 C 331.636719 98.550781 327.273438 100.109375 323.699219 102.109375 C 320.097656 104.105469 317.359375 106.472656 315.464844 109.148438 C 313.566406 111.84375 312.621094 114.777344 312.59375 117.96875 C 312.621094 121.546875 313.890625 124.714844 316.382813 127.480469 C 318.875 130.253906 322.371094 132.652344 326.894531 134.710938 C 331.417969 136.757813 336.726563 138.503906 342.820313 139.964844 C 347.183594 140.976563 350.730469 141.984375 353.4375 142.992188 C 356.148438 144.003906 358.125 145.085938 359.34375 146.253906 C 360.589844 147.429688 361.214844 148.785156 361.1875 150.308594 C 361.1875 151.9375 360.535156 153.351563 359.207031 154.546875 C 357.882813 155.734375 355.933594 156.671875 353.359375 157.328125 C 350.785156 157.988281 347.589844 158.339844 343.796875 158.339844 C 340.25 158.320313 336.808594 158.097656 333.421875 157.660156 C 330.0625 157.21875 326.921875 156.632813 323.996094 155.933594 C 321.070313 155.238281 318.523438 154.503906 316.332031 153.714844 Z M 403.28125 96.847656 L 403.28125 138.210938 C 403.308594 146.035156 405.039063 152.46875 408.480469 157.476563 C 411.921875 162.503906 416.878906 166.21875 423.378906 168.621094 C 429.878906 171.023438 437.761719 172.214844 447 172.199219 C 456.5625 172.199219 464.742188 170.988281 471.566406 168.53125 C 478.367188 166.074219 483.566406 162.351563 487.195313 157.347656 C 490.800781 152.359375 492.640625 146.054688 492.667969 138.425781 L 492.667969 96.847656 L 467.964844 96.847656 L 467.964844 139.421875 C 467.9375 146.003906 466.203125 150.878906 462.765625 154.046875 C 459.324219 157.21875 454.339844 158.796875 447.8125 158.777344 C 441.5 158.777344 436.652344 157.164063 433.210938 153.921875 C 429.769531 150.691406 428.039063 145.851563 427.984375 139.421875 L 427.984375 96.847656 Z M 509.894531 167.46875 C 511.980469 168.253906 514.660156 168.988281 517.914063 169.683594 C 521.164063 170.382813 524.738281 170.96875 528.695313 171.410156 C 532.648438 171.847656 536.738281 172.070313 540.9375 172.089844 C 548.441406 172.070313 554.96875 171.445313 560.496094 170.234375 C 566.046875 169.046875 570.625 167.378906 574.226563 165.253906 C 577.855469 163.140625 580.566406 160.703125 582.328125 157.933594 C 584.113281 155.164063 584.980469 152.230469 584.980469 149.097656 C 584.980469 145.632813 583.980469 142.515625 581.949219 139.800781 C 579.914063 137.070313 576.800781 134.652344 572.628906 132.546875 C 568.457031 130.433594 563.148438 128.585938 556.703125 126.988281 C 551.960938 125.796875 548.089844 124.714844 545.082031 123.710938 C 542.074219 122.714844 539.878906 121.652344 538.472656 120.535156 C 537.0625 119.414063 536.359375 118.078125 536.386719 116.539063 C 536.386719 115.269531 536.953125 114.097656 538.121094 113.015625 C 539.285156 111.933594 541.074219 111.074219 543.429688 110.414063 C 545.785156 109.734375 548.738281 109.40625 552.3125 109.386719 C 555.835938 109.40625 559.058594 109.605469 561.984375 109.972656 C 564.882813 110.359375 567.429688 110.816406 569.648438 111.347656 C 571.84375 111.898438 573.660156 112.410156 575.066406 112.90625 L 580.59375 99.488281 C 577.371094 98.421875 573.46875 97.523438 568.863281 96.828125 C 564.285156 96.132813 558.871094 95.765625 552.636719 95.746094 C 546.191406 95.765625 540.421875 96.335938 535.328125 97.433594 C 530.238281 98.550781 525.875 100.109375 522.300781 102.109375 C 518.699219 104.105469 515.960938 106.472656 514.066406 109.148438 C 512.171875 111.84375 511.222656 114.777344 511.195313 117.96875 C 511.222656 121.546875 512.496094 124.714844 514.988281 127.480469 C 517.480469 130.253906 520.972656 132.652344 525.496094 134.710938 C 530.019531 136.757813 535.328125 138.503906 541.425781 139.964844 C 545.785156 140.976563 549.332031 141.984375 552.042969 142.992188 C 554.75 144.003906 556.730469 145.085938 557.949219 146.253906 C 559.195313 147.429688 559.816406 148.785156 559.789063 150.308594 C 559.789063 151.9375 559.140625 153.351563 557.8125 154.546875 C 556.484375 155.734375 554.535156 156.671875 551.960938 157.328125 C 549.386719 157.988281 546.191406 158.339844 542.398438 158.339844 C 538.851563 158.320313 535.410156 158.097656 532.023438 157.660156 C 528.667969 157.21875 525.523438 156.632813 522.597656 155.933594 C 519.671875 155.238281 517.128906 154.503906 514.933594 153.714844 Z M 509.894531 167.46875 "/>
</g>
</svg>
